<mxfile host="app.diagrams.net" modified="2024-05-29T13:06:33.500Z" agent="Mozilla/5.0 (Macintosh; Intel Mac OS X 10_15_7) AppleWebKit/605.1.15 (KHTML, like Gecko) Version/17.4.1 Safari/605.1.15" etag="K2gY1FJgm5sNUsYtZWEb" version="24.4.0" type="device">
  <diagram name="Seite-1" id="tuFJtAjsjJIvuz3v8sRS">
    <mxGraphModel dx="954" dy="624" grid="1" gridSize="10" guides="1" tooltips="1" connect="1" arrows="1" fold="1" page="1" pageScale="1" pageWidth="827" pageHeight="1169" math="0" shadow="0">
      <root>
        <mxCell id="0" />
        <mxCell id="1" parent="0" />
        <mxCell id="AV7PzNvh2ari7xMUpJTD-7" value="&lt;font style=&quot;font-size: 24px;&quot;&gt;[3]&lt;/font&gt;" style="ellipse;whiteSpace=wrap;html=1;aspect=fixed;fontSize=16;" parent="1" vertex="1">
          <mxGeometry x="240" y="240" width="80" height="80" as="geometry" />
        </mxCell>
        <mxCell id="gp_G_IWkHLcCS4RJO3hx-1" value="&lt;font style=&quot;font-size: 24px;&quot;&gt;[4]&lt;/font&gt;" style="ellipse;shape=doubleEllipse;whiteSpace=wrap;html=1;aspect=fixed;" vertex="1" parent="1">
          <mxGeometry x="240" y="360" width="80" height="80" as="geometry" />
        </mxCell>
        <mxCell id="gp_G_IWkHLcCS4RJO3hx-2" value="&lt;font style=&quot;font-size: 24px;&quot;&gt;[1,5,6]&lt;/font&gt;" style="ellipse;whiteSpace=wrap;html=1;aspect=fixed;fontSize=16;" vertex="1" parent="1">
          <mxGeometry x="120" y="360" width="80" height="80" as="geometry" />
        </mxCell>
        <mxCell id="gp_G_IWkHLcCS4RJO3hx-5" value="1" style="edgeStyle=orthogonalEdgeStyle;rounded=0;orthogonalLoop=1;jettySize=auto;html=1;exitX=1;exitY=0.5;exitDx=0;exitDy=0;entryX=0;entryY=0.5;entryDx=0;entryDy=0;fontSize=20;labelPosition=center;verticalLabelPosition=top;align=center;verticalAlign=bottom;" edge="1" parent="1" source="gp_G_IWkHLcCS4RJO3hx-3" target="AV7PzNvh2ari7xMUpJTD-7">
          <mxGeometry relative="1" as="geometry" />
        </mxCell>
        <mxCell id="gp_G_IWkHLcCS4RJO3hx-3" value="&lt;font style=&quot;font-size: 24px;&quot;&gt;[0]&lt;/font&gt;" style="ellipse;whiteSpace=wrap;html=1;aspect=fixed;fontSize=16;" vertex="1" parent="1">
          <mxGeometry x="120" y="240" width="80" height="80" as="geometry" />
        </mxCell>
        <mxCell id="gp_G_IWkHLcCS4RJO3hx-4" value="" style="endArrow=classic;html=1;rounded=0;startArrow=baseDash;startFill=0;" edge="1" parent="1">
          <mxGeometry width="50" height="50" relative="1" as="geometry">
            <mxPoint x="80" y="280" as="sourcePoint" />
            <mxPoint x="120" y="279.5" as="targetPoint" />
          </mxGeometry>
        </mxCell>
        <mxCell id="gp_G_IWkHLcCS4RJO3hx-7" value="0" style="edgeStyle=orthogonalEdgeStyle;rounded=0;orthogonalLoop=1;jettySize=auto;html=1;exitX=0;exitY=1;exitDx=0;exitDy=0;entryX=0;entryY=0;entryDx=0;entryDy=0;fontSize=20;labelPosition=left;verticalLabelPosition=middle;align=right;verticalAlign=middle;" edge="1" parent="1" source="gp_G_IWkHLcCS4RJO3hx-3" target="gp_G_IWkHLcCS4RJO3hx-2">
          <mxGeometry relative="1" as="geometry">
            <mxPoint x="210" y="290" as="sourcePoint" />
            <mxPoint x="290" y="290" as="targetPoint" />
          </mxGeometry>
        </mxCell>
        <mxCell id="gp_G_IWkHLcCS4RJO3hx-8" value="0" style="edgeStyle=orthogonalEdgeStyle;rounded=0;orthogonalLoop=1;jettySize=auto;html=1;fontSize=20;labelPosition=left;verticalLabelPosition=middle;align=right;verticalAlign=middle;exitX=1;exitY=0;exitDx=0;exitDy=0;entryX=1;entryY=1;entryDx=0;entryDy=0;" edge="1" parent="1" source="gp_G_IWkHLcCS4RJO3hx-2" target="gp_G_IWkHLcCS4RJO3hx-3">
          <mxGeometry relative="1" as="geometry">
            <mxPoint x="240" y="360" as="sourcePoint" />
            <mxPoint x="300" y="350" as="targetPoint" />
          </mxGeometry>
        </mxCell>
        <mxCell id="gp_G_IWkHLcCS4RJO3hx-10" value="&lt;font style=&quot;font-size: 20px;&quot;&gt;1&lt;/font&gt;" style="edgeStyle=orthogonalEdgeStyle;rounded=0;orthogonalLoop=1;jettySize=auto;html=1;exitX=0;exitY=1;exitDx=0;exitDy=0;entryX=1;entryY=1;entryDx=0;entryDy=0;labelPosition=center;verticalLabelPosition=bottom;align=center;verticalAlign=top;" edge="1" parent="1" source="gp_G_IWkHLcCS4RJO3hx-2" target="gp_G_IWkHLcCS4RJO3hx-2">
          <mxGeometry relative="1" as="geometry">
            <Array as="points">
              <mxPoint x="132" y="460" />
              <mxPoint x="188" y="460" />
            </Array>
          </mxGeometry>
        </mxCell>
        <mxCell id="gp_G_IWkHLcCS4RJO3hx-11" value="0,1" style="edgeStyle=orthogonalEdgeStyle;rounded=0;orthogonalLoop=1;jettySize=auto;html=1;exitX=0.5;exitY=1;exitDx=0;exitDy=0;entryX=0.5;entryY=0;entryDx=0;entryDy=0;fontSize=20;labelPosition=left;verticalLabelPosition=middle;align=right;verticalAlign=middle;" edge="1" parent="1" source="AV7PzNvh2ari7xMUpJTD-7" target="gp_G_IWkHLcCS4RJO3hx-1">
          <mxGeometry relative="1" as="geometry">
            <mxPoint x="142" y="318" as="sourcePoint" />
            <mxPoint x="142" y="382" as="targetPoint" />
          </mxGeometry>
        </mxCell>
        <mxCell id="gp_G_IWkHLcCS4RJO3hx-12" value="&lt;font style=&quot;font-size: 20px;&quot;&gt;1&lt;/font&gt;" style="edgeStyle=orthogonalEdgeStyle;rounded=0;orthogonalLoop=1;jettySize=auto;html=1;exitX=0;exitY=0.5;exitDx=0;exitDy=0;entryX=1;entryY=0.5;entryDx=0;entryDy=0;labelPosition=center;verticalLabelPosition=bottom;align=center;verticalAlign=top;" edge="1" parent="1" source="gp_G_IWkHLcCS4RJO3hx-1" target="gp_G_IWkHLcCS4RJO3hx-2">
          <mxGeometry relative="1" as="geometry">
            <mxPoint x="142" y="438" as="sourcePoint" />
            <mxPoint x="198" y="438" as="targetPoint" />
            <Array as="points" />
          </mxGeometry>
        </mxCell>
        <mxCell id="gp_G_IWkHLcCS4RJO3hx-13" value="&lt;font style=&quot;font-size: 20px;&quot;&gt;0&lt;/font&gt;" style="edgeStyle=orthogonalEdgeStyle;rounded=0;orthogonalLoop=1;jettySize=auto;html=1;exitX=0;exitY=1;exitDx=0;exitDy=0;entryX=1;entryY=1;entryDx=0;entryDy=0;labelPosition=center;verticalLabelPosition=bottom;align=center;verticalAlign=top;" edge="1" parent="1">
          <mxGeometry relative="1" as="geometry">
            <mxPoint x="252" y="430" as="sourcePoint" />
            <mxPoint x="308" y="430" as="targetPoint" />
            <Array as="points">
              <mxPoint x="252" y="462" />
              <mxPoint x="308" y="462" />
            </Array>
          </mxGeometry>
        </mxCell>
      </root>
    </mxGraphModel>
  </diagram>
</mxfile>
